grf
version=1
nRows=11
nColumns=46
inDegrees=yes
endheader
time	ground_force_1_vx	ground_force_1_vy	ground_force_1_vz	ground_force_1_px	ground_force_1_py	ground_force_1_pz	ground_moment_1_mx	ground_moment_1_my	ground_moment_1_mz	ground_force_2_vx	ground_force_2_vy	ground_force_2_vz	ground_force_2_px	ground_force_2_py	ground_force_2_pz	ground_moment_2_mx	ground_moment_2_my	ground_moment_2_mz	ground_force_3_vx	ground_force_3_vy	ground_force_3_vz	ground_force_3_px	ground_force_3_py	ground_force_3_pz	ground_moment_3_mx	ground_moment_3_my	ground_moment_3_mz	ground_force_4_vx	ground_force_4_vy	ground_force_4_vz	ground_force_4_px	ground_force_4_py	ground_force_4_pz	ground_moment_4_mx	ground_moment_4_my	ground_moment_4_mz	ground_force_5_vx	ground_force_5_vy	ground_force_5_vz	ground_force_5_px	ground_force_5_py	ground_force_5_pz	ground_moment_5_mx	ground_moment_5_my	ground_moment_5_mz
0.000000	0.000000	0.000000	0.000000	0.000000	0.000000	0.000000	0.000000	0.000000	0.000000	0.000000	0.000000	0.000000	0.000000	0.000000	0.000000	0.000000	0.000000	0.000000	0.000000	0.000000	0.000000	0.000000	0.000000	0.000000	0.000000	0.000000	0.000000	4.348153	527.212394	-67.334939	0.212995	0.000000	-1.063632	0.000000	6.561043	0.000000	-1.566554	510.354062	64.950903	0.220549	0.000000	-1.409403	0.000000	-5.750704	-0.000000
0.000500	0.000000	0.000000	0.000000	0.000000	0.000000	0.000000	0.000000	0.000000	0.000000	0.000000	0.000000	0.000000	0.000000	0.000000	0.000000	0.000000	0.000000	0.000000	0.000000	0.000000	0.000000	0.000000	0.000000	0.000000	0.000000	0.000000	0.000000	4.343655	527.241194	-67.361884	0.213003	0.000000	-1.063630	0.000000	6.558123	0.000000	-1.571652	510.377094	64.964908	0.220552	0.000000	-1.409412	0.000000	-5.755120	-0.000000
0.001000	0.000000	0.000000	0.000000	0.000000	0.000000	0.000000	0.000000	0.000000	0.000000	0.000000	0.000000	0.000000	0.000000	0.000000	0.000000	0.000000	0.000000	0.000000	0.000000	0.000000	0.000000	0.000000	0.000000	0.000000	0.000000	0.000000	0.000000	4.339202	527.269563	-67.388874	0.213011	0.000000	-1.063629	0.000000	6.555207	0.000000	-1.577442	510.400497	64.979297	0.220555	0.000000	-1.409421	0.000000	-5.759456	-0.000000
0.001500	0.000000	0.000000	0.000000	0.000000	0.000000	0.000000	0.000000	0.000000	0.000000	0.000000	0.000000	0.000000	0.000000	0.000000	0.000000	0.000000	0.000000	0.000000	0.000000	0.000000	0.000000	0.000000	0.000000	0.000000	0.000000	0.000000	0.000000	4.334837	527.297398	-67.415836	0.213019	0.000000	-1.063627	0.000000	6.552306	0.000000	-1.583934	510.424291	64.994036	0.220559	0.000000	-1.409430	-0.000000	-5.763697	-0.000000
0.002000	0.000000	0.000000	0.000000	0.000000	0.000000	0.000000	0.000000	0.000000	0.000000	0.000000	0.000000	0.000000	0.000000	0.000000	0.000000	0.000000	0.000000	0.000000	0.000000	0.000000	0.000000	0.000000	0.000000	0.000000	0.000000	0.000000	0.000000	4.330594	527.324596	-67.442701	0.213027	0.000000	-1.063626	0.000000	6.549429	0.000000	-1.591131	510.448484	65.009088	0.220564	0.000000	-1.409439	-0.000000	-5.767834	-0.000000
0.002500	0.000000	0.000000	0.000000	0.000000	0.000000	0.000000	0.000000	0.000000	0.000000	0.000000	0.000000	0.000000	0.000000	0.000000	0.000000	0.000000	0.000000	0.000000	0.000000	0.000000	0.000000	0.000000	0.000000	0.000000	0.000000	0.000000	0.000000	4.326506	527.351065	-67.469406	0.213035	0.000000	-1.063624	0.000000	6.546584	0.000000	-1.599035	510.473077	65.024420	0.220569	0.000000	-1.409447	-0.000000	-5.771858	-0.000000
0.003000	0.000000	0.000000	0.000000	0.000000	0.000000	0.000000	0.000000	0.000000	0.000000	0.000000	0.000000	0.000000	0.000000	0.000000	0.000000	0.000000	0.000000	0.000000	0.000000	0.000000	0.000000	0.000000	0.000000	0.000000	0.000000	0.000000	0.000000	4.322597	527.376729	-67.495895	0.213042	0.000000	-1.063622	0.000000	6.543781	0.000000	-1.607644	510.498053	65.039999	0.220576	0.000000	-1.409455	-0.000000	-5.775763	-0.000000
0.003500	0.000000	0.000000	0.000000	0.000000	0.000000	0.000000	0.000000	0.000000	0.000000	0.000000	0.000000	0.000000	0.000000	0.000000	0.000000	0.000000	0.000000	0.000000	0.000000	0.000000	0.000000	0.000000	0.000000	0.000000	0.000000	0.000000	0.000000	4.318888	527.401532	-67.522123	0.213050	0.000000	-1.063619	0.000000	6.541025	0.000000	-1.616958	510.523395	65.055793	0.220583	0.000000	-1.409463	-0.000000	-5.779543	-0.000000
0.004000	0.000000	0.000000	0.000000	0.000000	0.000000	0.000000	0.000000	0.000000	0.000000	0.000000	0.000000	0.000000	0.000000	0.000000	0.000000	0.000000	0.000000	0.000000	0.000000	0.000000	0.000000	0.000000	0.000000	0.000000	0.000000	0.000000	0.000000	4.315397	527.425432	-67.548052	0.213057	0.000000	-1.063617	0.000000	6.538323	0.000000	-1.626973	510.549090	65.071768	0.220591	0.000000	-1.409471	-0.000000	-5.783197	-0.000000
0.004500	0.000000	0.000000	0.000000	0.000000	0.000000	0.000000	0.000000	0.000000	0.000000	0.000000	0.000000	0.000000	0.000000	0.000000	0.000000	0.000000	0.000000	0.000000	0.000000	0.000000	0.000000	0.000000	0.000000	0.000000	0.000000	0.000000	0.000000	4.312145	527.448386	-67.573646	0.213064	0.000000	-1.063615	0.000000	6.535682	0.000000	-1.637680	510.575130	65.087894	0.220599	0.000000	-1.409479	-0.000000	-5.786720	-0.000000
0.005000	0.000000	0.000000	0.000000	0.000000	0.000000	0.000000	0.000000	0.000000	0.000000	0.000000	0.000000	0.000000	0.000000	0.000000	0.000000	0.000000	0.000000	0.000000	0.000000	0.000000	0.000000	0.000000	0.000000	0.000000	0.000000	0.000000	0.000000	4.309155	527.470351	-67.598866	0.213071	0.000000	-1.063612	0.000000	6.533109	0.000000	-1.649074	510.601524	65.104147	0.220609	0.000000	-1.409486	-0.000000	-5.790111	-0.000000
